<svg width="85" height="85" viewBox="0 0 85 85" xmlns="http://www.w3.org/2000/svg">
  <title>Boston items on Amazon</title>
  <g stroke-width="3" stroke="#FFF" fill="none" fill-rule="evenodd">
    <path d="M42.5 82.6c22.15 0 40.1-17.95 40.1-40.1 0-22.15-17.95-40.1-40.1-40.1-22.15 0-40.1 17.95-40.1 40.1 0 22.15 17.95 40.1 40.1 40.1z" stroke-linecap="round"/>
    <path d="M42.5 77.04c19.08 0 34.54-15.46 34.54-34.54S61.58 7.96 42.5 7.96 7.96 23.42 7.96 42.5 23.42 77.04 42.5 77.04z" stroke-linecap="round"/>
    <path stroke-linecap="round" d="M55.07 48.52H28.62l-5.46-16.14H57.2zm-19.2 7.44c0 2.17-1.77 3.92-3.93 3.92-2.17 0-3.93-1.75-3.93-3.92s1.8-3.93 3.97-3.93 3.92 1.76 3.92 3.93zm19.63 0c0 2.17-1.76 3.92-3.93 3.92-2.16 0-3.92-1.75-3.92-3.92s1.76-3.93 3.92-3.93c2.17 0 3.93 1.76 3.93 3.93z"/>
    <path d="M65.93 24.88l-5.8 2.47-2.94 5.02"/>
  </g>
</svg>
