<?xml version="1.0" encoding="UTF-8"?>
<svg width="309px" height="27px" viewBox="0 0 309 27" version="1.1" xmlns="http://www.w3.org/2000/svg" xmlns:xlink="http://www.w3.org/1999/xlink">
    <title>City of Boston ❤︎ Amazon</title>
    <defs>
        <path d="M3.05619385,3.00769213 C1.45675558,4.56493537 0.658428464,6.50817391 0.658428464,8.83601175 C0.658428464,11.1652456 1.44283531,13.0931281 3.010953,14.6203572 C4.57907068,16.1468884 6.57593248,16.9112009 9.00014637,16.9112009 C11.4236642,16.9112009 13.5291041,15.9074736 15.3157699,13.9007168 L13.0641673,11.587537 C11.9679465,12.9500376 10.5578239,13.6319859 8.83101517,13.6319859 C7.57053531,13.6319859 6.49728299,13.1901504 5.61125822,12.3064794 C4.72592946,11.4235065 4.28326508,10.2508625 4.28326508,8.7906416 C4.28326508,7.33181669 4.75237796,6.17173678 5.69060372,5.31040188 C6.62813347,4.44906698 7.75845886,4.01839953 9.07949187,4.01839953 C10.7297391,4.01839953 12.1113253,4.70732785 13.2207703,6.08448649 L15.4062516,3.61425617 C13.6641307,1.65286957 11.5030097,0.672176263 8.92149688,0.672176263 C6.61003712,0.672176263 4.65493611,1.45044888 3.05619385,3.00769213 Z" id="path-1"></path>
        <path d="M2.17086509,0.783158637 C2.83834173,0.305027027 3.61022034,0.0670082256 4.48580491,0.0670082256 C5.49572003,0.0670082256 6.28569498,0.366451234 6.85503376,0.96533725 C7.42506855,1.56492127 7.70973794,2.38088602 7.70973794,3.4146275 C7.70973794,4.45814101 7.52181438,5.40742421 7.1424872,6.26247709 C6.76385604,7.11822797 6.24532622,7.77435018 5.58480972,8.23154172 C4.92429321,8.68803525 4.16424683,8.91767803 3.30467056,8.91767803 C2.31076374,8.91767803 1.5214848,8.62172503 0.935441707,8.02981904 C0.350094627,7.43791304 0.0570730804,6.63311633 0.0570730804,5.61542891 C0.0570730804,4.58866745 0.243604611,3.64496827 0.612491594,2.78712338 C0.983466616,1.9292785 1.50269244,1.26129025 2.17086509,0.783158637 Z M2.29127537,6.97164747 C2.54810423,7.2773725 2.9267354,7.42953702 3.42925691,7.42953702 C3.89558574,7.42953702 4.31528169,7.25364042 4.68764873,6.90184724 C5.0607118,6.55075206 5.35025328,6.0593584 5.5576652,5.42557227 C5.76507713,4.79318214 5.86878309,4.09657579 5.86878309,3.33714924 C5.86878309,2.78433137 5.74210869,2.35226792 5.48667186,2.03886486 C5.23471509,1.72615981 4.87209223,1.57050529 4.40089131,1.57050529 C3.91925019,1.57050529 3.48772202,1.75477791 3.10700281,2.12402115 C2.72558759,2.49326439 2.43047801,2.99512808 2.22097804,3.62821622 C2.01147808,4.26060635 1.90638009,4.93627262 1.90638009,5.65451704 C1.90638009,6.22827497 2.03444651,6.66801645 2.29127537,6.97164747 Z" id="path-3"></path>
        <path d="M5.49363199,0.770594595 C5.02312708,1.20196005 4.67581651,1.9292785 4.44752419,2.95254994 L4.28396109,3.66521034 L2.77778858,4.25362632 L2.6149215,5.07587309 L4.00485981,5.07587309 L2.3191159,12.9961058 C2.09778371,14.0549753 1.63841501,14.5847591 0.944489879,14.5847591 C0.685572977,14.5847591 0.390463391,14.5331069 0.0584651067,14.4305006 L0.0584651067,15.9018895 C0.364014891,16.0212479 0.750302203,16.0805781 1.21593502,16.0805781 C1.97806944,16.0805781 2.5940411,15.8502374 3.06524202,15.3916498 C3.53644294,14.9309683 3.87540136,14.2127239 4.0835093,13.2369166 L5.81519008,5.07587309 L7.59419975,5.07587309 L7.88234921,3.69592244 L6.10264352,3.69592244 L6.24254217,3.0293302 C6.35668833,2.5232785 6.52094744,2.15892127 6.73601551,1.93556052 C6.95108358,1.71499177 7.23714499,1.6026134 7.59419975,1.6026134 C7.91575784,1.6026134 8.26863652,1.67660165 8.65144377,1.82108813 L9.12473272,0.456493537 C8.62847533,0.23452879 8.08140898,0.123546416 7.4856217,0.123546416 C6.62604543,0.123546416 5.96204886,0.339927145 5.49363199,0.770594595 Z" id="path-5"></path>
        <path d="M0.262396967,0.333645123 L6.38592088,0.333645123 C7.45151705,0.333645123 8.37095046,0.460681551 9.14491711,0.715452409 C9.91749173,0.969525264 10.4993587,1.31433843 10.8891261,1.74779788 C11.5955795,2.55748061 11.9470661,3.47046769 11.9470661,4.48815511 C11.9470661,5.71663925 11.5496426,6.62962632 10.7540996,7.22851234 C10.4840465,7.43930905 10.2961229,7.56983549 10.1917209,7.62148766 C10.0866229,7.67383784 9.89869938,7.76039013 9.62864626,7.87974853 C10.6044567,8.08984724 11.3812074,8.52749471 11.9588984,9.19408696 C12.5351973,9.8599812 12.8254348,10.687812 12.8254348,11.6754853 C12.8254348,12.768557 12.4502837,13.7345922 11.6999815,14.5728931 C10.829269,15.5466063 9.3133523,16.033114 7.15223139,16.033114 L0.262396967,16.033114 L0.262396967,0.333645123 Z M3.77447945,3.29875911 L3.77447945,6.68965452 L5.44073499,6.68965452 C6.41515343,6.68965452 7.14039916,6.58565217 7.61368812,6.37485546 C8.08628107,6.16545476 8.32292555,5.71245123 8.32292555,5.01654289 C8.32292555,4.31993655 8.10507342,3.85925499 7.66936918,3.63519624 C7.23436094,3.41043948 6.49867502,3.29875911 5.46370342,3.29875911 L3.77447945,3.29875911 Z M3.77447945,9.45234783 L3.77447945,13.068698 L6.18338105,13.068698 C7.18912009,13.068698 7.94359837,12.9444536 8.44542387,12.6973608 C8.94864139,12.4509659 9.20129417,11.9637603 9.20129417,11.2378378 C9.20129417,10.5119154 8.93472113,10.0330858 8.40087902,9.800651 C7.86842894,9.56821622 7.01720483,9.45234783 5.84651067,9.45234783 L3.77447945,9.45234783 Z" id="path-7"></path>
        <path d="M2.55506437,2.99722209 C4.14615048,1.44695887 6.10403555,0.672176263 8.43080759,0.672176263 C10.7575796,0.672176263 12.7161607,1.44695887 14.3072468,2.99722209 C15.8976369,4.54608931 16.693876,6.4739718 16.693876,8.78017156 C16.693876,11.0863713 15.8976369,13.0135558 14.3072468,14.563819 C12.7161607,16.1133843 10.7575796,16.8881669 8.43080759,16.8881669 C6.10403555,16.8881669 4.14615048,16.1133843 2.55506437,14.563819 C0.963282234,13.0135558 0.168435188,11.0863713 0.168435188,8.78017156 C0.168435188,6.4739718 0.963282234,4.54608931 2.55506437,2.99722209 Z M5.12196096,12.3623196 C6.02190599,13.3430129 7.12856694,13.8344066 8.44263981,13.8344066 C9.75532066,13.8344066 10.8626776,13.3430129 11.7626227,12.3623196 C12.6639597,11.3816263 13.1142802,10.1915323 13.1142802,8.7906416 C13.1142802,7.39114689 12.6639597,6.19616686 11.7626227,5.20919154 C10.8626776,4.22082021 9.75532066,3.72663455 8.44263981,3.72663455 C7.12856694,3.72663455 6.02190599,4.22082021 5.12196096,5.20919154 C4.22131991,6.19616686 3.77030337,7.39114689 3.77030337,8.7906416 C3.77030337,10.1915323 4.22131991,11.3816263 5.12196096,12.3623196 Z" id="path-9"></path>
        <path d="M2.59195306,1.88460635 C1.51800473,2.69359107 0.982770603,3.84250294 0.982770603,5.33273796 C0.982770603,6.82297297 1.40594661,7.91534665 2.25369066,8.611953 C3.10143471,9.30786134 4.44056406,9.87324324 6.27247073,10.3074007 C7.42854862,10.5928837 8.20112324,10.8727826 8.59228265,11.1498895 C8.98205002,11.4269965 9.17762973,11.8004277 9.17762973,12.2722773 C9.17762973,12.7441269 8.99388225,13.1182562 8.62569128,13.3953631 C8.25750031,13.671772 7.75080272,13.8106745 7.1055985,13.8106745 C5.66485123,13.8106745 4.09603754,13.070094 2.39915741,11.587537 L0.30694181,14.1485076 C2.30241158,15.9898378 4.54705407,16.9112009 7.03808523,16.9112009 C8.76350189,16.9112009 10.1569203,16.4728555 11.2148603,15.5968625 C12.2728003,14.7208696 12.8024663,13.5789377 12.8024663,12.171067 C12.8024663,10.7631962 12.3890345,9.69385664 11.5635629,8.96025617 C10.7380913,8.2259577 9.5778373,7.67593184 8.08628107,7.30878261 C6.59124477,6.94302938 5.63840273,6.6233443 5.22566692,6.35391539 C4.81293111,6.08448649 4.60691121,5.72222327 4.60691121,5.26572973 C4.60691121,4.80853819 4.77534639,4.44278496 5.11291278,4.16498002 C5.45047917,3.88787309 5.91263192,3.74897062 6.49728299,3.74897062 C7.95403856,3.74897062 9.36485727,4.26688837 10.7304351,5.29853584 L12.5094448,2.73826322 C11.728518,2.080047 10.8125647,1.57050529 9.76228079,1.21103408 C8.71199691,0.851562867 7.66101702,0.672176263 6.61003712,0.672176263 C5.00433473,0.672176263 3.66450937,1.07631962 2.59195306,1.88460635 Z" id="path-11"></path>
        <path d="M2.80354107,2.99722209 C4.39462719,1.44695887 6.35390428,0.672176263 8.68067632,0.672176263 C11.0067524,0.672176263 12.9660294,1.44695887 14.5571156,2.99722209 C16.1482017,4.54608931 16.9437447,6.4739718 16.9437447,8.78017156 C16.9437447,11.0863713 16.1482017,13.0135558 14.5571156,14.563819 C12.9660294,16.1133843 11.0067524,16.8881669 8.68067632,16.8881669 C6.35390428,16.8881669 4.39462719,16.1133843 2.80354107,14.563819 C1.21315096,13.0135558 0.417607905,11.0863713 0.417607905,8.78017156 C0.417607905,6.4739718 1.21315096,4.54608931 2.80354107,2.99722209 Z M5.37113367,12.3623196 C6.27177472,13.3430129 7.37843567,13.8344066 8.69111652,13.8344066 C10.0051894,13.8344066 11.1125464,13.3430129 12.0131874,12.3623196 C12.9138284,11.3816263 13.364149,10.1915323 13.364149,8.7906416 C13.364149,7.39114689 12.9138284,6.19616686 12.0131874,5.20919154 C11.1125464,4.22082021 10.0051894,3.72663455 8.69111652,3.72663455 C7.37843567,3.72663455 6.27177472,4.22082021 5.37113367,5.20919154 C4.47049262,6.19616686 4.01947609,7.39114689 4.01947609,8.7906416 C4.01947609,10.1915323 4.47049262,11.3816263 5.37113367,12.3623196 Z" id="path-13"></path>
    </defs>
    <g id="Symbols" stroke="none" stroke-width="1" fill="none" fill-rule="evenodd">
        <g id="-" transform="translate(-27.000000, -32.000000)">
            <g id="Page-1" transform="translate(27.000000, 31.000000)">
                <path d="M8.83101517,14.2753347 C10.5571278,14.2753347 11.9679465,13.5940844 13.0641673,12.2315838 L15.3157699,14.5447636 C13.5291041,16.5515203 11.4243603,17.5545497 9.00014637,17.5545497 C6.57593248,17.5545497 4.57907068,16.7909351 3.010953,15.263706 C1.44283531,13.7364769 0.658428464,11.8085944 0.658428464,9.48005852 C0.658428464,7.15222068 1.45745159,5.20898214 3.05619385,3.6517389 C4.65493611,2.09449565 6.60934111,1.31552503 8.92149688,1.31552503 C11.5030097,1.31552503 13.6641307,2.29691633 15.4055556,4.25830294 L13.2214663,6.72853325 C12.1113253,5.35137462 10.7297391,4.6624463 9.07879586,4.6624463 C7.75845886,4.6624463 6.62813347,5.09241575 5.69060372,5.95375065 C4.75237796,6.81508555 4.28326508,7.97516545 4.28326508,9.43468837 C4.28326508,10.8949093 4.72592946,12.0668552 5.61195423,12.9498282 C6.49728299,13.8334992 7.57053531,14.2753347 8.83101517,14.2753347" id="Fill-1" fill="#0B1E2D"></path>
                <g id="Group-6" transform="translate(0.000000, 0.643558)">
                    <mask id="mask-2" fill="white">
                        <use xlink:href="#path-1"></use>
                    </mask>
                    <g id="Clip-4"></g>
                    <polygon id="Fill-3" fill="#0B1E2D" mask="url(#mask-2)" points="-56.3770672 193.346651 238.676838 193.346651 238.676838 -235.87035 -56.3770672 -235.87035"></polygon>
                    <polygon id="Fill-5" fill="#0B1E2D" mask="url(#mask-2)" points="-0.0598571331 17.6315394 16.1245372 17.6315394 16.1245372 -0.0488601645 -0.0598571331 -0.0488601645"></polygon>
                </g>
                <polygon id="Fill-7" fill="#0B1E2D" points="17.9905485 17.3739765 21.502631 17.3739765 21.502631 1.67450764 17.9905485 1.67450764"></polygon>
                <polygon id="Fill-8" fill="#0B1E2D" points="17.9905485 17.3746745 21.502631 17.3746745 21.502631 1.67450764 17.9905485 1.67450764"></polygon>
                <polygon id="Fill-9" fill="#0B1E2D" points="17.9905485 17.3746745 21.502631 17.3746745 21.502631 1.67450764 17.9905485 1.67450764"></polygon>
                <polygon id="Fill-10" fill="#0B1E2D" points="31.8144142 4.70711845 31.8144142 17.3744651 28.3023317 17.3744651 28.3023317 4.70711845 23.8443674 4.70711845 23.8443674 1.67499624 36.2723786 1.67499624 36.2723786 4.70711845"></polygon>
                <polygon id="Fill-11" fill="#0B1E2D" points="23.8437409 1.67492644 23.8437409 4.70635065 28.3017053 4.70635065 28.3017053 17.3750933 31.8144838 17.3750933 31.8144838 4.70635065 36.2724482 4.70635065 36.2724482 1.67492644"></polygon>
                <polygon id="Fill-12" fill="#0B1E2D" points="23.8437409 1.67492644 23.8437409 4.70635065 28.3017053 4.70635065 28.3017053 17.3750933 31.8144838 17.3750933 31.8144838 4.70635065 36.2724482 4.70635065 36.2724482 1.67492644"></polygon>
                <polygon id="Fill-13" fill="#0B1E2D" points="46.5859714 17.3743953 43.073889 17.3743953 43.073889 11.1754364 37.6248018 1.67492644 41.4299058 1.67492644 44.8299302 7.5144141 48.2299546 1.67492644 52.0343626 1.67492644 46.5859714 11.1754364"></polygon>
                <polygon id="Fill-14" fill="#0B1E2D" points="48.2299546 1.67492644 44.8306262 7.5144141 41.4299058 1.67492644 37.6254978 1.67492644 43.0731929 11.1747384 43.0731929 17.3750933 46.5859714 17.3750933 46.5859714 11.1747384 52.0350586 1.67492644"></polygon>
                <polygon id="Fill-15" fill="#0B1E2D" points="48.2299546 1.67492644 44.8306262 7.5144141 41.4299058 1.67492644 37.6254978 1.67492644 43.0731929 11.1747384 43.0731929 17.3750933 46.5859714 17.3750933 46.5859714 11.1747384 52.0350586 1.67492644"></polygon>
                <path d="M68.2630234,8.94420212 C68.2630234,9.98771563 68.0737078,10.9376968 67.6957726,11.7927497 C67.3178375,12.6478026 66.7986117,13.3039248 66.1380951,13.7611163 C65.4782747,14.2183079 64.7182283,14.4472526 63.857956,14.4472526 C62.8640492,14.4472526 62.0740742,14.1512996 61.4887271,13.5593937 C60.9033801,12.9681857 60.6103585,12.163389 60.6103585,11.1450035 C60.6103585,10.1175441 60.796194,9.17454289 61.166473,8.316698 C61.536752,7.45885311 62.0559779,6.79156287 62.7241505,6.31343126 C63.3916272,5.83529965 64.1635058,5.59658284 65.0390903,5.59658284 C66.0490055,5.59658284 66.8389804,5.89602585 67.4083192,6.49560987 C67.978354,7.09449589 68.2630234,7.91115864 68.2630234,8.94420212 M66.4220685,8.86672385 C66.4220685,8.31390599 66.2946981,7.88184254 66.0413493,7.56843948 C65.7880005,7.25643243 65.4246816,7.10007991 64.9541767,7.10007991 C64.4718396,7.10007991 64.0410075,7.28435253 63.6595922,7.65429377 C63.279569,8.02353702 62.9844595,8.5247027 62.7742635,9.15779083 C62.5647635,9.79087897 62.4596655,10.4658472 62.4596655,11.1840917 C62.4596655,11.7578496 62.5877319,12.1968931 62.8445608,12.5019201 C63.1006937,12.8062491 63.4800208,12.9591116 63.9825423,12.9591116 C64.4488712,12.9591116 64.8685671,12.783215 65.2416302,12.4321199 C65.6139972,12.0803267 65.9035387,11.588235 66.1109506,10.9551469 C66.3183626,10.3227568 66.4220685,9.62615041 66.4220685,8.86672385" id="Fill-16" fill="#0B1E2D"></path>
                <g id="Group-21" transform="translate(60.553146, 5.529575)">
                    <mask id="mask-4" fill="white">
                        <use xlink:href="#path-3"></use>
                    </mask>
                    <g id="Clip-19"></g>
                    <polygon id="Fill-18" fill="#0B1E2D" mask="url(#mask-4)" points="-116.930213 188.460635 178.123692 188.460635 178.123692 -240.756367 -116.930213 -240.756367"></polygon>
                    <polygon id="Fill-20" fill="#0B1E2D" mask="url(#mask-4)" points="-0.661212516 9.63801645 8.42802354 9.63801645 8.42802354 -0.654028202 -0.661212516 -0.654028202"></polygon>
                </g>
                <path d="M68.0332694,18.12049 C67.5669406,18.12049 67.1813493,18.0611598 66.8757995,17.9418014 L66.8757995,16.4697145 C67.2071018,16.5730188 67.5022114,16.624671 67.7611283,16.624671 C68.4557494,16.624671 68.9137261,16.0948872 69.1364503,15.0360176 L70.8221942,7.11578496 L69.4322559,7.11578496 L69.595123,6.29423619 L71.1019915,5.70512221 L71.2648586,4.99176381 C71.4931509,3.96919036 71.8411575,3.24187192 72.3102704,2.81050646 C72.7786873,2.37914101 73.4426838,2.16345828 74.3029561,2.16345828 C74.8987434,2.16345828 75.4451137,2.27444066 75.9420671,2.49640541 L75.4687782,3.860302 C75.0852749,3.71581551 74.7330922,3.64322327 74.4115342,3.64322327 C74.0537834,3.64322327 73.767722,3.75490364 73.5533499,3.97686839 C73.3382818,4.19883314 73.1733267,4.56319036 73.0598766,5.06994007 L72.9199779,5.73583431 L74.6989876,5.73583431 L74.4115342,7.11578496 L72.6325245,7.11578496 L70.9001477,15.2761304 C70.6927358,16.2526357 70.3530813,16.9701821 69.8825764,17.4308637 C69.4113755,17.8901492 68.7947078,18.12049 68.0332694,18.12049" id="Fill-22" fill="#0B1E2D"></path>
                <g id="Group-27" transform="translate(66.817265, 2.039563)">
                    <mask id="mask-6" fill="white">
                        <use xlink:href="#path-5"></use>
                    </mask>
                    <g id="Clip-25"></g>
                    <polygon id="Fill-24" fill="#0B1E2D" mask="url(#mask-6)" points="-123.194332 191.950646 171.859573 191.950646 171.859573 -237.266355 -123.194332 -237.266355"></polygon>
                    <polygon id="Fill-26" fill="#0B1E2D" mask="url(#mask-6)" points="-0.65982049 16.8009166 9.84371433 16.8009166 9.84371433 -0.597490012 -0.65982049 -0.597490012"></polygon>
                </g>
                <path d="M90.6737428,17.3743953 L83.7839084,17.3743953 L83.7839084,1.67492644 L89.9081283,1.67492644 C90.9737245,1.67492644 91.8931579,1.80266087 92.6664285,2.05673373 C93.4390031,2.31150458 94.0208702,2.65561974 94.4113335,3.0897772 C95.1170909,3.89876193 95.4692736,4.811749 95.4692736,5.83013443 C95.4692736,7.05792056 95.071154,7.97090764 94.276307,8.57049166 C94.0055579,8.77989236 93.8176343,8.9111168 93.7132323,8.96276898 C93.6081343,9.01581716 93.4202108,9.10167145 93.1501577,9.22172785 C94.1259681,9.43112855 94.9027188,9.86947403 95.4804098,10.5353683 C96.0581007,11.2019605 96.3469462,12.0290933 96.3469462,13.0174646 C96.3469462,14.1105363 95.9724911,15.0758736 95.2214929,15.9148724 C94.3507804,16.8878877 92.8348637,17.3743953 90.6737428,17.3743953 L90.6737428,17.3743953 Z M87.2959909,8.03093584 L88.9622464,8.03093584 C89.9380569,8.03093584 90.6619106,7.92623549 91.1351995,7.71683478 C91.6077925,7.50743408 91.844437,7.05373255 91.844437,6.35782421 C91.844437,5.66191586 91.6265848,5.20123431 91.1915766,4.97647756 C90.7558723,4.7517208 90.0201864,4.64004042 88.9845188,4.64004042 L87.2959909,4.64004042 L87.2959909,8.03093584 Z M87.2959909,14.4099793 L89.7055885,14.4099793 C90.7106315,14.4099793 91.4651098,14.2864329 91.9683273,14.0393401 C92.4708488,13.7922472 92.7228056,13.3057396 92.7228056,12.5791192 C92.7228056,11.8531967 92.4555365,11.3743671 91.9230864,11.1419323 C91.3899403,10.9094975 90.5387162,10.7936291 89.3680221,10.7936291 L87.2959909,10.7936291 L87.2959909,14.4099793 Z" id="Fill-28" fill="#0B1E2D"></path>
                <g id="Group-33" transform="translate(83.521581, 1.341561)">
                    <mask id="mask-8" fill="white">
                        <use xlink:href="#path-7"></use>
                    </mask>
                    <g id="Clip-31"></g>
                    <polygon id="Fill-30" fill="#0B1E2D" mask="url(#mask-8)" points="-139.898648 192.648649 155.155257 192.648649 155.155257 -236.568353 -139.898648 -236.568353"></polygon>
                    <polygon id="Fill-32" fill="#0B1E2D" mask="url(#mask-8)" points="-0.456584643 16.7534524 13.5437204 16.7534524 13.5437204 -0.387391304 -0.456584643 -0.387391304"></polygon>
                </g>
                <path d="M112.445592,15.2071678 C110.854506,16.756733 108.895229,17.5322136 106.569152,17.5322136 C104.24238,17.5322136 102.283799,16.756733 100.692713,15.2071678 C99.1016271,13.6576026 98.3060841,11.7297201 98.3060841,9.42352033 C98.3060841,7.11801857 99.1016271,5.19013608 100.692713,3.64057086 C102.283799,2.09030764 104.24238,1.31552503 106.569152,1.31552503 C108.895229,1.31552503 110.854506,2.09030764 112.445592,3.64057086 C114.036678,5.19013608 114.831525,7.11801857 114.831525,9.42352033 C114.831525,11.7297201 114.036678,13.6576026 112.445592,15.2071678 M111.252625,9.43468837 C111.252625,8.03449565 110.801609,6.84091163 109.901664,5.85254031 C109.000327,4.86416898 107.893666,4.36998331 106.580289,4.36998331 C105.266912,4.36998331 104.160251,4.86416898 103.25961,5.85254031 C102.358969,6.84091163 101.908648,8.03449565 101.908648,9.43468837 C101.908648,10.8348811 102.358969,12.0256731 103.25961,13.0063664 C104.160251,13.9870597 105.266912,14.4770573 106.580289,14.4770573 C107.893666,14.4770573 109.000327,13.9870597 109.901664,13.0063664 C110.801609,12.0256731 111.252625,10.8348811 111.252625,9.43468837" id="Fill-34" fill="#0B1E2D"></path>
                <g id="Group-39" transform="translate(98.137858, 0.643558)">
                    <mask id="mask-10" fill="white">
                        <use xlink:href="#path-9"></use>
                    </mask>
                    <g id="Clip-37"></g>
                    <polygon id="Fill-36" fill="#0B1E2D" mask="url(#mask-10)" points="-154.514925 193.346651 140.53898 193.346651 140.53898 -235.87035 -154.514925 -235.87035"></polygon>
                    <polygon id="Fill-38" fill="#0B1E2D" mask="url(#mask-10)" points="-0.550546421 17.6085053 17.4128576 17.6085053 17.4128576 -0.0488601645 -0.550546421 -0.0488601645"></polygon>
                </g>
                <path d="M121.3476,4.80832879 C121.010034,5.08543572 120.840903,5.45258496 120.840903,5.9090785 C120.840903,6.36557203 121.046923,6.72853325 121.460354,6.99796216 C121.87309,7.26739107 122.825932,7.58568014 124.319576,7.95282938 C125.812525,8.31997861 126.972779,8.87000447 127.79825,9.60360494 C128.623026,10.3372054 129.036458,11.407941 129.036458,12.8151137 C129.036458,14.2229845 128.507488,15.3642183 127.448852,16.2409093 C126.390912,17.1162042 124.998885,17.5545497 123.272773,17.5545497 C120.781046,17.5545497 118.536403,16.6331866 116.540933,14.7918564 L118.634541,12.2315838 C120.330725,13.7134428 121.899539,14.4547213 123.340286,14.4547213 C123.98549,14.4547213 124.492188,14.3165168 124.859683,14.0394099 C125.227874,13.7623029 125.411621,13.3881737 125.411621,12.9163241 C125.411621,12.4444745 125.216737,12.0703452 124.826274,11.7932383 C124.435811,11.5161314 123.66254,11.2355344 122.507158,10.9507495 C120.675251,10.516592 119.335426,9.95190811 118.487682,9.25530176 C117.639938,8.55939342 117.216066,7.46632174 117.216066,5.97608672 C117.216066,4.48654971 117.751996,3.33693984 118.825944,2.52865311 C119.898501,1.71966839 121.238326,1.31552503 122.844725,1.31552503 C123.895008,1.31552503 124.945988,1.49560964 125.996968,1.85508085 C127.047252,2.21385405 127.963205,2.72339577 128.743436,3.38230999 L126.965123,5.94258261 C125.598849,4.90953913 124.18803,4.39301739 122.73197,4.39301739 C122.146623,4.39301739 121.685167,4.53122186 121.3476,4.80832879" id="Fill-40" fill="#0B1E2D"></path>
                <g id="Group-45" transform="translate(116.234200, 0.643558)">
                    <mask id="mask-12" fill="white">
                        <use xlink:href="#path-11"></use>
                    </mask>
                    <g id="Clip-43"></g>
                    <polygon id="Fill-42" fill="#0B1E2D" mask="url(#mask-12)" points="-172.611267 193.346651 122.442638 193.346651 122.442638 -235.87035 -172.611267 -235.87035"></polygon>
                    <polygon id="Fill-44" fill="#0B1E2D" mask="url(#mask-12)" points="-0.4120398 17.6315394 13.5207519 17.6315394 13.5207519 -0.0488601645 -0.4120398 -0.0488601645"></polygon>
                </g>
                <polygon id="Fill-46" fill="#0B1E2D" points="138.778206 4.70711845 138.778206 17.3744651 135.266124 17.3744651 135.266124 4.70711845 130.808159 4.70711845 130.808159 1.67499624 143.236171 1.67499624 143.236171 4.70711845"></polygon>
                <polygon id="Fill-47" fill="#0B1E2D" points="130.807951 1.67492644 130.807951 4.70635065 135.264523 4.70635065 135.264523 17.3750933 138.778693 17.3750933 138.778693 4.70635065 143.235962 4.70635065 143.235962 1.67492644"></polygon>
                <polygon id="Fill-48" fill="#0B1E2D" points="130.807951 1.67492644 130.807951 4.70635065 135.264523 4.70635065 135.264523 17.3750933 138.778693 17.3750933 138.778693 4.70635065 143.235962 4.70635065 143.235962 1.67492644"></polygon>
                <path d="M158.63226,15.2071678 C157.041174,16.756733 155.081897,17.5322136 152.755821,17.5322136 C150.429049,17.5322136 148.469772,16.756733 146.878686,15.2071678 C145.288296,13.6576026 144.492753,11.7297201 144.492753,9.42352033 C144.492753,7.11801857 145.288296,5.19013608 146.878686,3.64057086 C148.469772,2.09030764 150.429049,1.31552503 152.755821,1.31552503 C155.081897,1.31552503 157.041174,2.09030764 158.63226,3.64057086 C160.223347,5.19013608 161.018194,7.11801857 161.018194,9.42352033 C161.018194,11.7297201 160.223347,13.6576026 158.63226,15.2071678 M157.438598,9.43468837 C157.438598,8.03449565 156.988277,6.84091163 156.088332,5.85254031 C155.186995,4.86416898 154.079638,4.36998331 152.766261,4.36998331 C151.453581,4.36998331 150.34692,4.86416898 149.446279,5.85254031 C148.545637,6.84091163 148.094621,8.03449565 148.094621,9.43468837 C148.094621,10.8348811 148.545637,12.0256731 149.446279,13.0063664 C150.34692,13.9870597 151.453581,14.4770573 152.766261,14.4770573 C154.079638,14.4770573 155.186995,13.9870597 156.088332,13.0063664 C156.988277,12.0256731 157.438598,10.8348811 157.438598,9.43468837" id="Fill-49" fill="#0B1E2D"></path>
                <g id="Group-54" transform="translate(144.074727, 0.643558)">
                    <mask id="mask-14" fill="white">
                        <use xlink:href="#path-13"></use>
                    </mask>
                    <g id="Clip-52"></g>
                    <polygon id="Fill-51" fill="#0B1E2D" mask="url(#mask-14)" points="-200.451794 193.346651 94.6021108 193.346651 94.6021108 -235.87035 -200.451794 -235.87035"></polygon>
                    <polygon id="Fill-53" fill="#0B1E2D" mask="url(#mask-14)" points="-0.300677692 17.6085053 17.6627263 17.6085053 17.6627263 -0.0488601645 -0.300677692 -0.0488601645"></polygon>
                </g>
                <polygon id="Fill-55" fill="#0B1E2D" points="175.047314 1.67478684 178.559396 1.67478684 178.559396 17.3742557 175.047314 17.3742557 167.54986 7.53730858 167.54986 17.3742557 164.037081 17.3742557 164.037081 1.67478684 167.324351 1.67478684 175.047314 11.7818609"></polygon>
                <polygon id="Fill-56" fill="#0B1E2D" points="175.047035 1.67492644 175.047035 11.7813025 167.324073 1.67492644 164.037499 1.67492644 164.037499 17.3750933 167.550277 17.3750933 167.550277 7.53675018 175.047035 17.3750933 178.559814 17.3750933 178.559814 1.67492644"></polygon>
                <polygon id="Fill-57" fill="#0B1E2D" points="175.047035 1.67492644 175.047035 11.7813025 167.324073 1.67492644 164.037499 1.67492644 164.037499 17.3750933 167.550277 17.3750933 167.550277 7.53675018 175.047035 17.3750933 178.559814 17.3750933 178.559814 1.67492644"></polygon>
                <polygon id="Fill-58" fill="#FB4D42" points="83.1617422 25.4798778 179.672321 25.4798778 179.672321 20.5107991 83.1617422 20.5107991"></polygon>
                <g id="Group-87" transform="translate(190.011597, 0.643558)">
                    <g id="Group-3">
                        <path d="M14.9952558,10.4890907 L12.6079307,13.0423833 L10.1767566,15.5949779 L7.74558262,13.0423833 L5.35964945,10.4890907 C4.75551002,9.93278284 4.37757486,9.13357015 4.37896689,8.24501316 C4.38244696,6.57748555 5.74384873,5.21428696 7.40732022,5.21358895 C8.64343961,5.21358895 9.70625173,5.95556545 10.1774527,7.02001904 C10.6479576,5.95626345 11.7100737,5.21428696 12.945497,5.21358895 C14.6089685,5.21289095 15.9710663,6.57539154 15.9759384,8.24291915 C15.9780265,9.13217415 15.5993953,9.93278284 14.9952558,10.4890907" id="Fill-59" fill="#FB4D42"></path>
                        <path d="M10.0864141,1.7517765 C5.60339327,1.7517765 1.95628423,5.40930881 1.95628423,9.90514195 C1.95628423,14.4009751 5.60339327,18.0585074 10.0864141,18.0585074 C14.569435,18.0585074 18.216544,14.4009751 18.216544,9.90514195 C18.216544,5.40930881 14.569435,1.7517765 10.0864141,1.7517765 M10.0864141,19.4545121 C4.83569074,19.4545121 0.564257881,15.1708717 0.564257881,9.90514195 C0.564257881,4.63941222 4.83569074,0.355771798 10.0864141,0.355771798 C15.3364415,0.355771798 19.6085704,4.63941222 19.6085704,9.90514195 C19.6085704,15.1708717 15.3364415,19.4545121 10.0864141,19.4545121" id="Fill-61" fill="#0B1E2D"></path>
                    </g>
                    <g id="Group-4" transform="translate(30.000000, 0.000000)">
                        <path d="M54.7259834,21.4752629 C49.626587,25.2496772 42.2325387,27.256707 35.8655692,27.256707 C26.9427743,27.256707 18.9076634,23.9492939 12.8263765,18.4428276 C12.3492176,18.0103906 12.7750609,17.4197263 13.3487238,17.7546153 C19.9094673,21.5835642 28.0219346,23.8893826 36.4017028,23.8893826 C42.0540828,23.8893826 48.2678712,22.7126625 53.9845873,20.2808767 C54.8469965,19.9137277 55.5700109,20.8508025 54.7259834,21.4752629" id="Fill-63" fill="#F8991C"></path>
                        <path d="M56.848613,19.0457046 C56.1960618,18.207714 52.536567,18.6486 50.8921686,18.8460001 C50.3943303,18.9059115 50.3169739,18.469634 50.7665602,18.1539474 C53.6854247,16.0969915 58.4685023,16.6914963 59.0245495,17.3797086 C59.585192,18.0740656 58.8774957,22.8838707 56.1416825,25.1789357 C55.7212006,25.532259 55.3206322,25.3433079 55.507513,24.8770748 C56.1225349,23.33551 57.5011641,19.8836952 56.848613,19.0457046" id="Fill-65" fill="#F8991C"></path>
                        <path d="M51.0085862,3.62721468 L51.0085862,1.629402 C51.0093521,1.32523675 51.2383578,1.12245992 51.5133177,1.12322801 L60.4430058,1.12245992 C60.7286884,1.12245992 60.9576941,1.33061341 60.95846,1.62709772 L60.9576941,3.34071559 C60.9553964,3.62798277 60.7141362,4.00281268 60.2852293,4.59885368 L55.6599282,11.2213607 C57.3770875,11.1806518 59.1938145,11.4387314 60.7531974,12.3181991 C61.1055138,12.5163673 61.1997201,12.8105474 61.2272927,13.0985826 L61.2272927,15.2300437 C61.2272927,15.5234556 60.9063784,15.8637213 60.5693802,15.6870597 C57.8213125,14.2430428 54.1733063,14.0848154 51.1349606,15.7047258 C50.8240031,15.869866 50.4984934,15.534977 50.4984934,15.2415651 L50.4984934,13.2145648 C50.4984934,12.8904292 50.5053865,12.3358652 50.8316621,11.8412127 L56.1907004,4.13108439 L51.5240404,4.13031629 C51.2391237,4.13031629 51.010118,3.92677136 51.0085862,3.62721468" id="Fill-67" fill="#020302"></path>
                        <path d="M18.4348701,16.1068231 L15.7189705,16.1068231 C15.4600946,16.089925 15.2533002,15.8948291 15.2326207,15.6459666 L15.2341525,1.66358219 C15.2341525,1.38399595 15.4685195,1.16048057 15.7587976,1.16048057 L18.2885823,1.15971248 C18.5535854,1.17277008 18.7657412,1.37401073 18.7825911,1.62901796 L18.7825911,3.45400946 L18.8339067,3.45400946 C19.4925851,1.68892929 20.7348833,0.864764358 22.408386,0.864764358 C24.1079296,0.864764358 25.1725377,1.68892929 25.9346133,3.45400946 C26.5932918,1.68892929 28.0891045,0.864764358 29.6867826,0.864764358 C30.8279813,0.864764358 32.0710454,1.33637412 32.8315892,2.39480774 C33.6932325,3.57229595 33.5163084,5.27900097 33.5163084,6.77908869 L33.5140107,15.6037215 C33.5140107,15.8825396 33.2796437,16.1068231 32.9901315,16.1068231 L30.2765296,16.1068231 C30.0038674,16.0891569 29.7894139,15.8725544 29.7894139,15.6044895 L29.788648,8.19161368 C29.788648,7.60325363 29.8391978,6.13235348 29.7120575,5.573181 C29.5090926,4.63149767 28.900964,4.36650522 28.1151453,4.36650522 C27.4557009,4.36650522 26.7709817,4.80815931 26.4921923,5.51403776 C26.2126369,6.21991621 26.2379118,7.39740442 26.2379118,8.19161368 L26.2379118,15.6037215 C26.2379118,15.8825396 26.0035448,16.1068231 25.7140326,16.1068231 L23.0004307,16.1068231 C22.7277685,16.0891569 22.513315,15.8725544 22.513315,15.6044895 L22.5102514,8.19161368 C22.5102514,6.63238272 22.763766,4.33731764 20.8367487,4.33731764 C18.8836906,4.33731764 18.9602811,6.57323948 18.9602811,8.19161368 L18.9587493,15.6037215 C18.9595152,15.8825396 18.7243823,16.1068231 18.4348701,16.1068231" id="Fill-69" fill="#020302"></path>
                        <path d="M68.6708184,3.71946278 C66.6672106,3.71946278 66.5400703,6.45618194 66.5400703,8.16211887 C66.5400703,9.86882389 66.5155613,13.5172707 68.6455436,13.5172707 C70.7502509,13.5172707 70.8513504,10.5754704 70.8513504,8.7804346 C70.8513504,7.60371448 70.8008006,6.19118949 70.4461866,5.07284453 C70.1413563,4.10197362 69.5324617,3.71946278 68.6708184,3.71946278 M68.6455436,0.865225214 C72.6772682,0.865225214 74.8585661,4.33701041 74.8585661,8.75047893 C74.8585661,13.0172415 72.4497944,16.401464 68.6455436,16.401464 C64.6896435,16.401464 62.5336205,12.9289107 62.5336205,8.60377296 C62.5336205,4.24867959 64.7141524,0.865225214 68.6455436,0.865225214" id="Fill-71" fill="#020302"></path>
                        <path d="M80.0871708,16.1068231 L77.380462,16.1068231 C77.1085656,16.0891569 76.8933463,15.8725544 76.8933463,15.6044895 L76.8887509,1.61596036 C76.911728,1.36095313 77.1369041,1.16048057 77.4103323,1.16048057 L79.9309261,1.15971248 C80.1675908,1.17123389 80.3636625,1.33406983 80.4134464,1.55067236 L80.4134464,3.68981434 L80.464762,3.68981434 C81.2253058,1.77726011 82.289914,0.864764358 84.1671475,0.864764358 C85.3841708,0.864764358 86.5759192,1.30641845 87.336463,2.51309423 C88.0472229,3.6306711 88.0472229,5.51403776 88.0472229,6.86741951 L88.0472229,15.6659371 C88.0165867,15.9147995 87.7944742,16.1068231 87.5264074,16.1068231 L84.8028487,16.1068231 C84.5516319,16.0906931 84.348667,15.9055824 84.3187967,15.6659371 L84.3187967,8.07409529 C84.3187967,6.54405191 84.4964867,4.30813007 82.6200191,4.30813007 C81.9605747,4.30813007 81.3516802,4.74901607 81.0476158,5.42570694 C80.6677269,6.27905945 80.6164112,7.13241196 80.6164112,8.07409529 L80.6164112,15.6037215 C80.6118158,15.8825396 80.3766829,16.1068231 80.0871708,16.1068231" id="Fill-73" fill="#020302"></path>
                        <path d="M46.6286045,16.0719516 C46.4486168,16.2332514 46.1897408,16.2447728 45.986776,16.1357034 C45.0845397,15.3837393 44.9229337,15.0357927 44.4296908,14.319929 C42.9384735,15.8430596 41.8822903,16.3000755 39.9506775,16.3000755 C37.6636847,16.3000755 35.8844871,14.8844782 35.8844871,12.0540515 C35.8844871,9.8419406 37.0785332,8.33801241 38.7811403,7.60064211 C40.2555077,6.95160262 42.3142608,6.83408423 43.8897277,6.65742259 L43.8897277,6.30333122 C43.8897277,5.65429174 43.9410433,4.88773385 43.5596225,4.32779328 C43.2295174,3.82622785 42.5938162,3.61961055 42.0347054,3.61961055 C40.9984357,3.61961055 40.0770518,4.15189974 39.8511098,5.25565091 C39.8043896,5.50144102 39.6251678,5.74415874 39.3793123,5.75644825 L36.7461304,5.47071725 C36.5240179,5.42079114 36.2766305,5.24182522 36.3402006,4.90155955 C36.9460316,1.69783919 39.8304304,0.730040658 42.4161262,0.730040658 C43.7373125,0.730040658 45.4651945,1.08336393 46.5075915,2.08649478 C47.8287778,3.32466242 47.7016376,4.97606467 47.7016376,6.77494098 L47.7016376,11.0194288 C47.7016376,12.2967692 48.230878,12.8567098 48.7271846,13.5449221 C48.901045,13.7922484 48.9401062,14.0879646 48.7187596,14.2684667 C48.1634784,14.7346998 47.1777585,15.593429 46.6347317,16.0780963 L46.6286045,16.0719516 Z M43.8897277,9.42947409 C43.8897277,10.4909801 43.9150025,11.3758245 43.3819326,12.319044 C42.9491961,13.0863699 42.263711,13.5579797 41.5008695,13.5579797 C40.4592385,13.5579797 39.8488121,12.7614662 39.8488121,11.5816737 C39.8488121,9.26126148 41.9244151,8.83957784 43.8897277,8.83957784 L43.8897277,9.42947409 Z" id="Fill-83" fill="#020302"></path>
                        <path d="M11.0154704,16.0719516 C10.8354827,16.2332514 10.5758408,16.2447728 10.3736419,16.1357034 C9.47063972,15.3837393 9.30903374,15.0357927 8.81579082,14.319929 C7.32533941,15.8430596 6.26915621,16.3000755 4.33754344,16.3000755 C2.04978476,16.3000755 0.271353016,14.8844782 0.271353016,12.0540515 C0.271353016,9.8419406 1.46539914,8.33801241 3.16800628,7.60064211 C4.64237368,6.95160262 6.70112672,6.83408423 8.2765936,6.65742259 L8.2765936,6.30333122 C8.2765936,5.65429174 8.32714334,4.88773385 7.94648848,4.32779328 C7.61561746,3.82622785 6.97991619,3.61961055 6.42157134,3.61961055 C5.38530167,3.61961055 4.46391778,4.15189974 4.23797577,5.25565091 C4.19048965,5.50144102 4.01203375,5.74415874 3.76541229,5.75644825 L1.1329963,5.47071725 C0.910117907,5.42079114 0.662730545,5.24182522 0.727066578,4.90155955 C1.33213164,1.69783919 4.21729633,0.730040658 6.80222619,0.730040658 C8.12417848,0.730040658 9.85206049,1.08336393 10.8944574,2.08649478 C12.2156438,3.32466242 12.0885035,4.97606467 12.0885035,6.77494098 L12.0885035,11.0194288 C12.0885035,12.2967692 12.6169781,12.8567098 13.1140505,13.5449221 C13.2871451,13.7922484 13.3262062,14.0879646 13.1056255,14.2684667 C12.5503443,14.7346998 11.5638585,15.593429 11.0215976,16.0780963 L11.0154704,16.0719516 Z M8.2765936,9.42947409 C8.2765936,10.4909801 8.30186847,11.3758245 7.76803258,12.319044 C7.33606208,13.0863699 6.64981107,13.5579797 5.88773545,13.5579797 C4.84533855,13.5579797 4.23567805,12.7614662 4.23567805,11.5816737 C4.23567805,9.26126148 6.311281,8.83957784 8.2765936,8.83957784 L8.2765936,9.42947409 Z" id="Fill-85" fill="#020302"></path>
                    </g>
                </g>
            </g>
        </g>
    </g>
</svg>
