<?xml version="1.0" encoding="UTF-8"?>
<svg width="39px" height="59px" viewBox="0 0 39 59" version="1.1" xmlns="http://www.w3.org/2000/svg" xmlns:xlink="http://www.w3.org/1999/xlink">
    <!-- Generator: Sketch 49 (51002) - http://www.bohemiancoding.com/sketch -->
    <title>pdf</title>
    <desc>Created with Sketch.</desc>
    <defs></defs>
    <g id="Page-1" stroke="none" stroke-width="1" fill="none" fill-rule="evenodd">
        <g id="pdf">
            <polyline id="Shape" fill="#091F2F" fill-rule="nonzero" points="0 0 39 0 39 58.95 19.73 52.2 0 58.94"></polyline>
            <g id="Group" transform="translate(13.000000, 9.000000)" stroke="#288BE4" stroke-width="2">
                <polygon id="Shape" points="0 1 9.14 1 13 5.2 13 19 0 19"></polygon>
                <polyline id="Shape" points="8 0.03 8 6 13.65 6"></polyline>
            </g>
            <path d="M11.332,34.6 C12.0760037,34.6 12.7219973,34.7239988 13.27,34.972 C13.8180027,35.2200012 14.2399985,35.5719977 14.536,36.028 C14.8320015,36.4840023 14.98,37.0239969 14.98,37.648 C14.98,38.2640031 14.8320015,38.8019977 14.536,39.262 C14.2399985,39.7220023 13.8180027,40.0739988 13.27,40.318 C12.7219973,40.5620012 12.0760037,40.684 11.332,40.684 L9.64,40.684 L9.64,43 L7.696,43 L7.696,34.6 L11.332,34.6 Z M11.224,39.1 C11.8080029,39.1 12.2519985,38.9740013 12.556,38.722 C12.8600015,38.4699987 13.012,38.1120023 13.012,37.648 C13.012,37.1759976 12.8600015,36.8140013 12.556,36.562 C12.2519985,36.3099987 11.8080029,36.184 11.224,36.184 L9.64,36.184 L9.64,39.1 L11.224,39.1 Z M16.36,34.6 L20.176,34.6 C21.0880046,34.6 21.8939965,34.7739983 22.594,35.122 C23.2940035,35.4700017 23.8379981,35.9599968 24.226,36.592 C24.6140019,37.2240032 24.808,37.9599958 24.808,38.8 C24.808,39.6400042 24.6140019,40.3759968 24.226,41.008 C23.8379981,41.6400032 23.2940035,42.1299983 22.594,42.478 C21.8939965,42.8260017 21.0880046,43 20.176,43 L16.36,43 L16.36,34.6 Z M20.08,41.404 C20.9200042,41.404 21.5899975,41.1700023 22.09,40.702 C22.5900025,40.2339977 22.84,39.600004 22.84,38.8 C22.84,37.999996 22.5900025,37.3660023 22.09,36.898 C21.5899975,36.4299977 20.9200042,36.196 20.08,36.196 L18.304,36.196 L18.304,41.404 L20.08,41.404 Z M28.216,36.16 L28.216,38.38 L32.104,38.38 L32.104,39.94 L28.216,39.94 L28.216,43 L26.272,43 L26.272,34.6 L32.62,34.6 L32.62,36.16 L28.216,36.16 Z" id="PDF" fill="#FFFFFF"></path>
        </g>
    </g>
</svg>