<?xml version="1.0" encoding="UTF-8"?>
<svg width="39px" height="59px" viewBox="0 0 39 59" version="1.1" xmlns="http://www.w3.org/2000/svg" xmlns:xlink="http://www.w3.org/1999/xlink">
    <!-- Generator: Sketch 49 (51002) - http://www.bohemiancoding.com/sketch -->
    <title>pdf</title>
    <desc>Created with Sketch.</desc>
    <defs></defs>
    <g id="Page-1" stroke="none" stroke-width="1" fill="none" fill-rule="evenodd">
        <g id="pdf">
            <polyline id="Shape" fill="#091F2F" fill-rule="nonzero" points="0 0 39 0 39 58.95 19.73 52.2 0 58.94"></polyline>
            <g id="Group" transform="translate(13.000000, 9.000000)" stroke="#288BE4" stroke-width="2">
                <polygon id="Shape" points="0 1 9.14 1 13 5.2 13 19 0 19"></polygon>
                <polyline id="Shape" points="8 0.03 8 6 13.65 6"></polyline>
            </g>
            <path d="M17.614,41.416 L17.614,43 L10.27,43 L10.27,41.74 L14.878,36.184 L10.366,36.184 L10.366,34.6 L17.434,34.6 L17.434,35.86 L12.838,41.416 L17.614,41.416 Z M18.862,34.6 L20.806,34.6 L20.806,43 L18.862,43 L18.862,34.6 Z M26.434,34.6 C27.1780037,34.6 27.8239973,34.7239988 28.372,34.972 C28.9200027,35.2200012 29.3419985,35.5719977 29.638,36.028 C29.9340015,36.4840023 30.082,37.0239969 30.082,37.648 C30.082,38.2640031 29.9340015,38.8019977 29.638,39.262 C29.3419985,39.7220023 28.9200027,40.0739988 28.372,40.318 C27.8239973,40.5620012 27.1780037,40.684 26.434,40.684 L24.742,40.684 L24.742,43 L22.798,43 L22.798,34.6 L26.434,34.6 Z M26.326,39.1 C26.9100029,39.1 27.3539985,38.9740013 27.658,38.722 C27.9620015,38.4699987 28.114,38.1120023 28.114,37.648 C28.114,37.1759976 27.9620015,36.8140013 27.658,36.562 C27.3539985,36.3099987 26.9100029,36.184 26.326,36.184 L24.742,36.184 L24.742,39.1 L26.326,39.1 Z" id="ZIP" fill="#FFFFFF"></path>
        </g>
    </g>
</svg>